<svg width="24" height="24" viewBox="0 0 24 24" fill="none" xmlns="http://www.w3.org/2000/svg">
<path d="M8.76048 1.73002L8.89048 1.73002C13.3305 1.73002 15.4705 3.48002 15.8405 7.40002C15.8805 7.81002 15.5805 8.18002 15.1605 8.22002C14.7505 8.26002 14.3805 7.95002 14.3405 7.54002C14.0505 4.40002 12.5705 3.23002 8.88047 3.23002L8.75047 3.23002C4.68047 3.23002 3.24047 4.67002 3.24047 8.74002L3.24047 15.26C3.24047 19.33 4.68047 20.77 8.75047 20.77L8.88047 20.77C12.5905 20.77 14.0705 19.58 14.3405 16.38C14.3905 15.97 14.7305 15.66 15.1605 15.7C15.5805 15.73 15.8805 16.1 15.8505 16.51C15.5105 20.49 13.3605 22.27 8.89047 22.27L8.76047 22.27C3.85047 22.27 1.75047 20.17 1.75047 15.26L1.75047 8.74002C1.75047 3.83002 3.85048 1.73002 8.76048 1.73002Z" fill="#1C95AB"/>
<path d="M9.12 11.25L22 11.25C22.41 11.25 22.75 11.59 22.75 12C22.75 12.41 22.41 12.75 22 12.75L9.12 12.75C8.71 12.75 8.37 12.41 8.37 12C8.37 11.59 8.7 11.25 9.12 11.25Z" fill="#1C95AB"/>
<path d="M11.3502 7.90003C11.5402 7.90003 11.7302 7.97003 11.8802 8.12003C12.1702 8.41003 12.1702 8.89003 11.8802 9.18003L9.06016 12L11.8802 14.82C12.1702 15.11 12.1702 15.59 11.8802 15.88C11.5902 16.17 11.1102 16.17 10.8202 15.88L7.47016 12.53C7.18016 12.24 7.18016 11.76 7.47016 11.47L10.8202 8.12003C10.9702 7.97003 11.1602 7.90003 11.3502 7.90003Z" fill="#1C95AB"/>
</svg>
